<svg xmlns="http://www.w3.org/2000/svg" xmlns:xlink="http://www.w3.org/1999/xlink" width="120" zoomAndPan="magnify" viewBox="0 0 90 89.999999" height="120" preserveAspectRatio="xMidYMid meet" version="1.0"><defs><clipPath id="0376c564d7"><path d="M 45 0 C 20.148438 0 0 20.148438 0 45 C 0 69.851562 20.148438 90 45 90 C 69.851562 90 90 69.851562 90 45 C 90 20.148438 69.851562 0 45 0 Z M 45 0 " clip-rule="nonzero"/></clipPath><clipPath id="8320e5541b"><path d="M 0 0 L 90 0 L 90 90 L 0 90 Z M 0 0 " clip-rule="nonzero"/></clipPath><clipPath id="f5bd690d22"><path d="M 45 0 C 20.148438 0 0 20.148438 0 45 C 0 69.851562 20.148438 90 45 90 C 69.851562 90 90 69.851562 90 45 C 90 20.148438 69.851562 0 45 0 Z M 45 0 " clip-rule="nonzero"/></clipPath><clipPath id="41437ca1e9"><rect x="0" width="90" y="0" height="90"/></clipPath><clipPath id="c24089926a"><path d="M 11.699219 11.699219 L 44 11.699219 L 44 44 L 11.699219 44 Z M 11.699219 11.699219 " clip-rule="nonzero"/></clipPath><clipPath id="86814335c5"><path d="M 11.699219 46 L 44 46 L 44 78.449219 L 11.699219 78.449219 Z M 11.699219 46 " clip-rule="nonzero"/></clipPath><clipPath id="fa730dded9"><path d="M 46 46 L 78.449219 46 L 78.449219 78.449219 L 46 78.449219 Z M 46 46 " clip-rule="nonzero"/></clipPath><clipPath id="dfa5339552"><path d="M 46 11.699219 L 78.449219 11.699219 L 78.449219 44 L 46 44 Z M 46 11.699219 " clip-rule="nonzero"/></clipPath></defs><g clip-path="url(#0376c564d7)"><g transform="matrix(1, 0, 0, 1, 0, -0.00000000000000949)"><g clip-path="url(#41437ca1e9)"><g clip-path="url(#8320e5541b)"><g clip-path="url(#f5bd690d22)"><rect x="-19.8" width="129.6" fill="#f9fcff" height="129.599999" y="-19.8" fill-opacity="1"/></g></g></g></g></g><g clip-path="url(#c24089926a)"><path fill="#e83735" d="M 11.699219 43.253906 L 43.253906 43.253906 L 43.253906 11.699219 C 26.273438 12.617188 12.617188 26.269531 11.699219 43.253906 " fill-opacity="1" fill-rule="nonzero"/></g><g clip-path="url(#86814335c5)"><path fill="#45bf94" d="M 43.253906 78.449219 L 43.253906 46.894531 L 11.699219 46.894531 C 12.617188 63.878906 26.273438 77.535156 43.253906 78.449219 " fill-opacity="1" fill-rule="nonzero"/></g><g clip-path="url(#fa730dded9)"><path fill="#3f7ec0" d="M 46.898438 78.449219 C 63.878906 77.535156 77.535156 63.878906 78.449219 46.894531 L 46.898438 46.894531 L 46.898438 78.449219 " fill-opacity="1" fill-rule="nonzero"/></g><g clip-path="url(#dfa5339552)"><path fill="#ecc10c" d="M 46.898438 11.699219 L 46.898438 43.253906 L 78.449219 43.253906 C 77.535156 26.269531 63.878906 12.617188 46.898438 11.699219 " fill-opacity="1" fill-rule="nonzero"/></g></svg>